# xmcd CD database file
#
# Track frame offsets:
#	150
#	13520
#	30042
#	45440
#	79640
#	97827
#	108052
#	122907
#	143970
#	160700
#	174625
#	190425
#
# Disc length: 2844 seconds
#
# Revision: 0
# Processed by: cddbd v1.4PL0 Copyright (c) Steve Scherf et al.
# Submitted via: CDex 1.40Beta8
#
DISCID=840b1a0c
DTITLE=Old West - Forgetten Trails
DYEAR=1997
DGENRE=Country
TTITLE0=I Want To Live Out West
TTITLE1=Just the Way Merle Travis Used to Play
TTITLE2=Oklahoma Hills
TTITLE3=Gallo de Cielo
TTITLE4=I'm So Lonesome I Could Cry
TTITLE5=Under the Double Eagle
TTITLE6=Arizona Yodeler
TTITLE7=El Paso City
TTITLE8=The Lilies Grow High
TTITLE9=Lonely Cowboy
TTITLE10=Call of the Canyon
TTITLE11=Forgotten Trails
EXTD=YEAR: 1997 ID3G: 2
EXTT0=
EXTT1=
EXTT2=
EXTT3=
EXTT4=
EXTT5=
EXTT6=
EXTT7=
EXTT8=
EXTT9=
EXTT10=
EXTT11=
PLAYORDER=
